<?xml version="1.0" encoding="UTF-8" standalone="no"?>
<svg
   xmlns:dc="http://purl.org/dc/elements/1.1/"
   xmlns:cc="http://creativecommons.org/ns#"
   xmlns:rdf="http://www.w3.org/1999/02/22-rdf-syntax-ns#"
   xmlns:svg="http://www.w3.org/2000/svg"
   xmlns="http://www.w3.org/2000/svg"
   xmlns:xlink="http://www.w3.org/1999/xlink"
   xmlns:sodipodi="http://sodipodi.sourceforge.net/DTD/sodipodi-0.dtd"
   xmlns:inkscape="http://www.inkscape.org/namespaces/inkscape"
   width="500pt"
   height="600pt"
   id="svg2"
   version="1.1"
   inkscape:version="0.47 r22583"
   sodipodi:docname="GLOC_tux.svg">
  <metadata
     id="metadata95">
    <rdf:RDF>
      <cc:Work
         rdf:about="">
        <dc:format>image/svg+xml</dc:format>
        <dc:type
           rdf:resource="http://purl.org/dc/dcmitype/StillImage" />
        <dc:title></dc:title>
      </cc:Work>
    </rdf:RDF>
  </metadata>
  <sodipodi:namedview
     pagecolor="#ffffff"
     bordercolor="#666666"
     borderopacity="1"
     objecttolerance="10"
     gridtolerance="10"
     guidetolerance="10"
     inkscape:pageopacity="0"
     inkscape:pageshadow="2"
     inkscape:window-width="1680"
     inkscape:window-height="1000"
     id="namedview93"
     showgrid="false"
     inkscape:zoom="0.32"
     inkscape:cx="-246.875"
     inkscape:cy="368.75"
     inkscape:window-x="0"
     inkscape:window-y="28"
     inkscape:window-maximized="1"
     inkscape:current-layer="g1369" />
  <defs
     id="defs4">
    <inkscape:perspective
       sodipodi:type="inkscape:persp3d"
       inkscape:vp_x="0 : 375 : 1"
       inkscape:vp_y="0 : 1000 : 0"
       inkscape:vp_z="625 : 375 : 1"
       inkscape:persp3d-origin="312.5 : 250 : 1"
       id="perspective97" />
    <linearGradient
       id="linearGradient172">
      <stop
         style="stop-color:#3f2600;stop-opacity:0.6;"
         offset="0"
         id="stop173" />
      <stop
         style="stop-color:#3f2600;stop-opacity:0;"
         offset="1"
         id="stop174" />
    </linearGradient>
    <linearGradient
       id="linearGradient167">
      <stop
         style="stop-color:#ffffff;stop-opacity:0.65;"
         offset="0"
         id="stop168" />
      <stop
         style="stop-color:#ffffff;stop-opacity:0;"
         offset="1"
         id="stop169" />
    </linearGradient>
    <linearGradient
       id="linearGradient162">
      <stop
         style="stop-color:#ffa63f;stop-opacity:1;"
         offset="0"
         id="stop163" />
      <stop
         style="stop-color:#ffff00;stop-opacity:1;"
         offset="1"
         id="stop164" />
    </linearGradient>
    <linearGradient
       id="linearGradient153">
      <stop
         style="stop-color:#ffeed7;stop-opacity:1;"
         offset="0"
         id="stop154" />
      <stop
         style="stop-color:#bdbfc2;stop-opacity:1;"
         offset="1"
         id="stop155" />
    </linearGradient>
    <linearGradient
       id="linearGradient138">
      <stop
         style="stop-color:#ffffff;stop-opacity:0.8;"
         offset="0"
         id="stop139" />
      <stop
         style="stop-color:#ffffff;stop-opacity:0;"
         offset="1"
         id="stop140" />
    </linearGradient>
    <linearGradient
       xlink:href="#linearGradient138"
       id="linearGradient141"
       x1="0.47424799"
       y1="0.020191999"
       x2="0.417539"
       y2="0.90125799"
       gradientUnits="objectBoundingBox" />
    <linearGradient
       xlink:href="#linearGradient167"
       id="linearGradient142"
       x1="0.55880702"
       y1="0.031192999"
       x2="0.553922"
       y2="0.94531101"
       gradientUnits="objectBoundingBox" />
    <linearGradient
       xlink:href="#linearGradient167"
       id="linearGradient143"
       x1="0.46557701"
       y1="0.028819799"
       x2="0.41365999"
       y2="0.93366498"
       gradientUnits="objectBoundingBox" />
    <linearGradient
       xlink:href="#linearGradient167"
       id="linearGradient144"
       x1="0.70346397"
       y1="0.059404202"
       x2="0.64553201"
       y2="0.94063401"
       gradientUnits="objectBoundingBox" />
    <linearGradient
       xlink:href="#linearGradient167"
       id="linearGradient145"
       x1="0.46741399"
       y1="-0.036155298"
       x2="0.86741799"
       y2="0.75857902"
       gradientUnits="objectBoundingBox" />
    <linearGradient
       xlink:href="#linearGradient167"
       id="linearGradient146"
       x1="0.57152498"
       y1="0.023441499"
       x2="0.57143003"
       y2="0.71875"
       gradientUnits="objectBoundingBox" />
    <linearGradient
       xlink:href="#linearGradient167"
       id="linearGradient147"
       x1="0.5"
       y1="0.0234362"
       x2="0.5"
       y2="0.8125"
       gradientUnits="objectBoundingBox" />
    <linearGradient
       xlink:href="#linearGradient167"
       id="linearGradient148"
       x1="0.50799799"
       y1="0.37435901"
       x2="0.51599997"
       y2="0.92820501"
       gradientUnits="objectBoundingBox" />
    <linearGradient
       xlink:href="#linearGradient138"
       id="linearGradient149"
       x1="0.5"
       y1="0.131707"
       x2="0.50400001"
       y2="0.94634098"
       gradientUnits="objectBoundingBox" />
    <linearGradient
       xlink:href="#linearGradient167"
       id="linearGradient150"
       x1="-0.30509499"
       y1="0.099496603"
       x2="0.156323"
       y2="0.94191301"
       gradientUnits="objectBoundingBox"
       gradientTransform="matrix(-0.928523,0.283938,0.435332,0.943857,-1.91327e-7,5.49908e-8)" />
    <linearGradient
       xlink:href="#linearGradient167"
       id="linearGradient151"
       x1="0.433979"
       y1="0.022184599"
       x2="0.487055"
       y2="1.02569"
       gradientUnits="objectBoundingBox" />
    <linearGradient
       xlink:href="#linearGradient153"
       id="linearGradient152"
       x1="0.5"
       y1="0.89842999"
       x2="0.5"
       y2="0.40625"
       gradientUnits="objectBoundingBox"
       spreadMethod="reflect" />
    <linearGradient
       xlink:href="#linearGradient153"
       id="linearGradient156"
       x1="0.43568701"
       y1="0.98882002"
       x2="0.453989"
       y2="0.23093501"
       gradientUnits="objectBoundingBox" />
    <linearGradient
       xlink:href="#linearGradient153"
       id="linearGradient157"
       x1="0.49180499"
       y1="1.15284"
       x2="0.49482101"
       y2="0.41252401"
       gradientUnits="objectBoundingBox" />
    <linearGradient
       xlink:href="#linearGradient153"
       id="linearGradient158"
       x1="0.51730198"
       y1="0.85418499"
       x2="0.49843901"
       y2="0.136172"
       gradientUnits="objectBoundingBox" />
    <linearGradient
       xlink:href="#linearGradient153"
       id="linearGradient159"
       x1="0.46201"
       y1="0.87917101"
       x2="0.49215299"
       y2="0.096282303"
       gradientUnits="objectBoundingBox" />
    <linearGradient
       xlink:href="#linearGradient162"
       id="linearGradient161"
       x1="0.50086302"
       y1="0.34872901"
       x2="0.41209599"
       y2="0.98558098"
       gradientUnits="objectBoundingBox" />
    <linearGradient
       xlink:href="#linearGradient162"
       id="linearGradient165"
       x1="0.60399801"
       y1="0.51020199"
       x2="0.46399999"
       y2="0.98367399"
       gradientUnits="objectBoundingBox" />
    <linearGradient
       xlink:href="#linearGradient162"
       id="linearGradient166"
       x1="0.50000501"
       y1="0.191616"
       x2="0.50800002"
       y2="0.97005898"
       gradientUnits="objectBoundingBox" />
    <radialGradient
       xlink:href="#linearGradient172"
       id="radialGradient171"
       cx="0.5"
       cy="0.5"
       fx="0.5"
       fy="0.5"
       r="0.5"
       gradientUnits="objectBoundingBox" />
    <radialGradient
       xlink:href="#linearGradient172"
       id="radialGradient176" />
    <linearGradient
       xlink:href="#linearGradient153"
       id="linearGradient178"
       x1="0.94027299"
       y1="1.2934099"
       x2="0.19452"
       y2="-0.675295"
       gradientUnits="objectBoundingBox" />
    <radialGradient
       xlink:href="#linearGradient172"
       id="radialGradient1399"
       gradientTransform="matrix(1.4818268,0,0,0.39679691,-38.7944,212.194)"
       cx="446.77762"
       cy="1219.4125"
       fx="446.77762"
       fy="1219.4125"
       r="195.07191"
       gradientUnits="userSpaceOnUse" />
    <linearGradient
       xlink:href="#linearGradient153"
       id="linearGradient1401"
       gradientUnits="userSpaceOnUse"
       x1="400.57785"
       y1="369.53015"
       x2="400.84448"
       y2="304.07886"
       gradientTransform="scale(0.575262,1.738339)" />
    <linearGradient
       xlink:href="#linearGradient138"
       id="linearGradient1403"
       gradientUnits="userSpaceOnUse"
       x1="303.01761"
       y1="237.93179"
       x2="297.0856"
       y2="330.09561"
       gradientTransform="scale(1.116071,0.896001)" />
    <linearGradient
       xlink:href="#linearGradient153"
       id="linearGradient1405"
       gradientUnits="userSpaceOnUse"
       gradientTransform="scale(0.816497,1.224744)"
       x1="378.93771"
       y1="278.60202"
       x2="380.27319"
       y2="243.91606" />
    <linearGradient
       xlink:href="#linearGradient153"
       id="linearGradient1407"
       gradientUnits="userSpaceOnUse"
       x1="381.38742"
       y1="277.495"
       x2="380.5517"
       y2="245.68338"
       gradientTransform="scale(0.816497,1.224744)" />
    <linearGradient
       xlink:href="#linearGradient167"
       id="linearGradient1409"
       gradientUnits="userSpaceOnUse"
       gradientTransform="scale(0.816497,1.224744)"
       x1="379.09573"
       y1="240.92712"
       x2="376.79556"
       y2="281.01636" />
    <linearGradient
       xlink:href="#linearGradient167"
       id="linearGradient1411"
       gradientUnits="userSpaceOnUse"
       x1="389.63535"
       y1="242.28218"
       x2="387.06866"
       y2="281.32513"
       gradientTransform="scale(0.816497,1.224744)" />
    <linearGradient
       xlink:href="#linearGradient153"
       id="linearGradient1413"
       gradientUnits="userSpaceOnUse"
       spreadMethod="reflect"
       x1="437.57941"
       y1="528.87177"
       x2="437.57941"
       y2="394.10361"
       gradientTransform="scale(0.812855,1.230232)" />
    <linearGradient
       xlink:href="#linearGradient153"
       id="linearGradient1415"
       gradientUnits="userSpaceOnUse"
       x1="375.17325"
       y1="419.78485"
       x2="377.48541"
       y2="324.03815"
       gradientTransform="scale(0.649784,1.538974)" />
    <linearGradient
       xlink:href="#linearGradient138"
       id="linearGradient1417"
       gradientUnits="userSpaceOnUse"
       x1="320.75104"
       y1="498.17776"
       x2="321.32224"
       y2="614.50439"
       gradientTransform="scale(1.074798,0.930408)" />
    <linearGradient
       xlink:href="#linearGradient167"
       id="linearGradient1419"
       gradientUnits="userSpaceOnUse"
       x1="322.48257"
       y1="435.26761"
       x2="323.2514"
       y2="488.48251"
       gradientTransform="scale(1.077001,0.928504)" />
    <linearGradient
       xlink:href="#linearGradient167"
       id="linearGradient1421"
       gradientUnits="userSpaceOnUse"
       x1="411.2215"
       y1="242.94365"
       x2="411.2215"
       y2="331.44858"
       gradientTransform="scale(0.571707,1.749147)" />
    <linearGradient
       xlink:href="#linearGradient167"
       id="linearGradient1423"
       gradientUnits="userSpaceOnUse"
       x1="867.34546"
       y1="234.73897"
       x2="867.33453"
       y2="314.83911"
       gradientTransform="scale(0.572667,1.746214)" />
    <linearGradient
       xlink:href="#linearGradient162"
       id="linearGradient1425"
       gradientUnits="userSpaceOnUse"
       x1="236.25362"
       y1="657.11133"
       x2="212.5099"
       y2="737.41229"
       gradientTransform="scale(1.011514,0.988617)" />
    <linearGradient
       xlink:href="#linearGradient153"
       id="linearGradient1427"
       gradientUnits="userSpaceOnUse"
       x1="381.56607"
       y1="655.73102"
       x2="279.64313"
       y2="386.66583"
       gradientTransform="scale(1.065499,0.938527)" />
    <linearGradient
       xlink:href="#linearGradient162"
       id="linearGradient1429"
       gradientUnits="userSpaceOnUse"
       x1="218.11714"
       y1="630.30475"
       x2="203.12654"
       y2="737.8537"
       gradientTransform="scale(1.009851,0.990245)" />
    <linearGradient
       xlink:href="#linearGradient167"
       id="linearGradient1431"
       gradientUnits="userSpaceOnUse"
       gradientTransform="scale(1.007724,0.992335)"
       x1="117.88966"
       y1="587.23602"
       x2="182.24524"
       y2="704.73077" />
    <linearGradient
       xlink:href="#linearGradient167"
       id="linearGradient1433"
       gradientUnits="userSpaceOnUse"
       x1="223.10072"
       y1="570.41809"
       x2="230.53499"
       y2="710.97723"
       gradientTransform="scale(0.999504,1.000496)" />
    <linearGradient
       xlink:href="#linearGradient167"
       id="linearGradient1435"
       gradientUnits="userSpaceOnUse"
       x1="316.93988"
       y1="474.01779"
       x2="371.60889"
       y2="582.63507"
       gradientTransform="scale(1.065499,0.938527)" />
    <linearGradient
       xlink:href="#linearGradient162"
       id="linearGradient1437"
       gradientUnits="userSpaceOnUse"
       x1="284.68652"
       y1="410.46326"
       x2="285.45923"
       y2="485.69934"
       gradientTransform="scale(1.218684,0.820557)" />
    <linearGradient
       xlink:href="#linearGradient167"
       id="linearGradient1439"
       gradientUnits="userSpaceOnUse"
       x1="288.82358"
       y1="398.85422"
       x2="288.37628"
       y2="482.55939"
       gradientTransform="scale(1.221941,0.81837)" />
    <inkscape:perspective
       id="perspective3685"
       inkscape:persp3d-origin="0.5 : 0.33333333 : 1"
       inkscape:vp_z="1 : 0.5 : 1"
       inkscape:vp_y="0 : 1000 : 0"
       inkscape:vp_x="0 : 0.5 : 1"
       sodipodi:type="inkscape:persp3d" />
    <inkscape:perspective
       id="perspective3707"
       inkscape:persp3d-origin="0.5 : 0.33333333 : 1"
       inkscape:vp_z="1 : 0.5 : 1"
       inkscape:vp_y="0 : 1000 : 0"
       inkscape:vp_x="0 : 0.5 : 1"
       sodipodi:type="inkscape:persp3d" />
    <inkscape:perspective
       id="perspective3729"
       inkscape:persp3d-origin="0.5 : 0.33333333 : 1"
       inkscape:vp_z="1 : 0.5 : 1"
       inkscape:vp_y="0 : 1000 : 0"
       inkscape:vp_x="0 : 0.5 : 1"
       sodipodi:type="inkscape:persp3d" />
    <inkscape:perspective
       id="perspective3729-7"
       inkscape:persp3d-origin="0.5 : 0.33333333 : 1"
       inkscape:vp_z="1 : 0.5 : 1"
       inkscape:vp_y="0 : 1000 : 0"
       inkscape:vp_x="0 : 0.5 : 1"
       sodipodi:type="inkscape:persp3d" />
    <inkscape:perspective
       id="perspective3764"
       inkscape:persp3d-origin="0.5 : 0.33333333 : 1"
       inkscape:vp_z="1 : 0.5 : 1"
       inkscape:vp_y="0 : 1000 : 0"
       inkscape:vp_x="0 : 0.5 : 1"
       sodipodi:type="inkscape:persp3d" />
    <inkscape:perspective
       id="perspective3795"
       inkscape:persp3d-origin="0.5 : 0.33333333 : 1"
       inkscape:vp_z="1 : 0.5 : 1"
       inkscape:vp_y="0 : 1000 : 0"
       inkscape:vp_x="0 : 0.5 : 1"
       sodipodi:type="inkscape:persp3d" />
    <filter
       inkscape:collect="always"
       id="filter3822">
      <feGaussianBlur
         inkscape:collect="always"
         stdDeviation="16.188499"
         id="feGaussianBlur3824" />
    </filter>
    <inkscape:perspective
       id="perspective3834"
       inkscape:persp3d-origin="0.5 : 0.33333333 : 1"
       inkscape:vp_z="1 : 0.5 : 1"
       inkscape:vp_y="0 : 1000 : 0"
       inkscape:vp_x="0 : 0.5 : 1"
       sodipodi:type="inkscape:persp3d" />
    <inkscape:perspective
       id="perspective3862"
       inkscape:persp3d-origin="0.5 : 0.33333333 : 1"
       inkscape:vp_z="1 : 0.5 : 1"
       inkscape:vp_y="0 : 1000 : 0"
       inkscape:vp_x="0 : 0.5 : 1"
       sodipodi:type="inkscape:persp3d" />
    <inkscape:perspective
       id="perspective3891"
       inkscape:persp3d-origin="0.5 : 0.33333333 : 1"
       inkscape:vp_z="1 : 0.5 : 1"
       inkscape:vp_y="0 : 1000 : 0"
       inkscape:vp_x="0 : 0.5 : 1"
       sodipodi:type="inkscape:persp3d" />
    <filter
       inkscape:collect="always"
       id="filter3930">
      <feGaussianBlur
         inkscape:collect="always"
         stdDeviation="12.141374"
         id="feGaussianBlur3932" />
    </filter>
    <inkscape:perspective
       id="perspective3951"
       inkscape:persp3d-origin="0.5 : 0.33333333 : 1"
       inkscape:vp_z="1 : 0.5 : 1"
       inkscape:vp_y="0 : 1000 : 0"
       inkscape:vp_x="0 : 0.5 : 1"
       sodipodi:type="inkscape:persp3d" />
    <inkscape:perspective
       id="perspective3979"
       inkscape:persp3d-origin="0.5 : 0.33333333 : 1"
       inkscape:vp_z="1 : 0.5 : 1"
       inkscape:vp_y="0 : 1000 : 0"
       inkscape:vp_x="0 : 0.5 : 1"
       sodipodi:type="inkscape:persp3d" />
  </defs>
  <path
     sodipodi:type="arc"
     style="color:#000000;fill:none;stroke:#1c7911;stroke-width:100;stroke-miterlimit:4;stroke-opacity:1;stroke-dasharray:none;marker:none;visibility:visible;display:inline;overflow:visible;enable-background:accumulate"
     id="path2903-5"
     sodipodi:cx="-471.875"
     sodipodi:cy="389.0625"
     sodipodi:rx="537.5"
     sodipodi:ry="248.4375"
     d="m 65.625,389.0625 a 537.5,248.4375 0 1 1 -1075,0 537.5,248.4375 0 1 1 1075,0 z"
     transform="matrix(-0.5845851,0.46691091,0.5143986,0.50610923,-1093.1718,256.22796)"
     inkscape:export-filename="/home/jeremy/Projects/gloc/graphics/gloc_tux_128.png"
     inkscape:export-xdpi="15.170144"
     inkscape:export-ydpi="15.170144" />
  <path
     sodipodi:type="arc"
     style="color:#000000;fill:none;stroke:#113979;stroke-width:100;stroke-miterlimit:4;stroke-opacity:1;stroke-dasharray:none;marker:none;visibility:visible;display:inline;overflow:visible;enable-background:accumulate"
     id="path2903"
     sodipodi:cx="-471.875"
     sodipodi:cy="389.0625"
     sodipodi:rx="537.5"
     sodipodi:ry="248.4375"
     d="m 65.625,389.0625 a 537.5,248.4375 0 1 1 -1075,0 537.5,248.4375 0 1 1 1075,0 z"
     transform="matrix(0.5845851,0.46691091,-0.5143986,0.50610923,-141.2032,256.22796)"
     inkscape:export-filename="/home/jeremy/Projects/gloc/graphics/gloc_tux_128.png"
     inkscape:export-xdpi="15.170144"
     inkscape:export-ydpi="15.170144" />
  <g
     id="g1369"
     transform="translate(-1260.7524,-98.62768)">
    <path
       d="m 912.31504,696.05306 a 289.06266,77.40393 0 0 1 -578.12533,0 289.06266,77.40393 0 1 1 578.12533,0 z"
       id="path175"
       style="fill:url(#radialGradient1399);stroke:none"
       inkscape:export-filename="/home/jeremy/Projects/gloc/graphics/gloc_tux_128.png"
       inkscape:export-xdpi="15.170144"
       inkscape:export-ydpi="15.170144" />
    <path
       transform="matrix(1.25,0,0,1.25,185.454,-167.505)"
       id="path106"
       d="m 223.627,632.24 c -22.388,-32.223 -26.754,-136.984 25.487,-201.43 25.886,-30.918 32.49,-52.465 34.531,-81.393 1.389,-32.979 -23.325,-131.442 69.883,-138.944 94.406,-7.532 89.336,85.66 88.793,134.975 -0.451,41.64 30.574,65.241 51.796,97.695 39.279,59.63 35.957,162.3 -7.399,217.872 -54.917,69.568 -101.953,39.398 -133.19,41.93 -58.493,3.202 -60.427,34.391 -129.901,-70.705 z"
       style="fill:#000000;stroke:none"
       inkscape:export-filename="/home/jeremy/Projects/gloc/graphics/gloc_tux_128.png"
       inkscape:export-xdpi="15.170144"
       inkscape:export-ydpi="15.170144" />
    <path
       transform="matrix(-1.67739,-0.0224516,-0.0211236,1.4709,1173.58,-293.017)"
       id="path113"
       d="m 246.571,470.864 c -12.239,12.496 -44.396,69.092 4.869,105.36 17.369,12.633 -16.377,59.495 -32.005,36.308 -27.57,-41.618 -8.831,-106.941 8.315,-130.188 11.652,-16.487 29.23,-22.676 18.821,-11.48 z"
       style="fill:url(#linearGradient1401);stroke:none"
       inkscape:export-filename="/home/jeremy/Projects/gloc/graphics/gloc_tux_128.png"
       inkscape:export-xdpi="15.170144"
       inkscape:export-ydpi="15.170144" />
    <path
       transform="matrix(-1.67755,0,0,1.52374,1174.62,-318.082)"
       id="path111"
       d="m 256.513,459.837 c -19.915,17.717 -56.176,80.091 -3.288,120.606 17.37,12.632 -15.393,52.463 -33.79,32.089 -63.963,-70.82 1.669,-152.254 24.262,-180.25 20.192,-24.347 38.078,5.752 12.816,27.555 z"
       style="fill:#000000;stroke:#000000;stroke-width:0.97729802"
       inkscape:export-filename="/home/jeremy/Projects/gloc/graphics/gloc_tux_128.png"
       inkscape:export-xdpi="15.170144"
       inkscape:export-ydpi="15.170144" />
    <path
       transform="matrix(1.26626,-0.0713667,-0.0459795,1.19574,202.143,-125.761)"
       d="m 399.56879,258.15753 a 58.37323,46.863022 0 1 1 -116.74646,0 58.37323,46.863022 0 1 1 116.74646,0 z"
       id="path114"
       style="fill:url(#linearGradient1403);stroke:none"
       inkscape:export-filename="/home/jeremy/Projects/gloc/graphics/gloc_tux_128.png"
       inkscape:export-xdpi="15.170144"
       inkscape:export-ydpi="15.170144" />
    <path
       transform="matrix(1.30445,-0.0755326,0.0771251,1.34257,144.757,-177.617)"
       d="m 328.86324,320.64151 a 18.08748,27.131196 0 1 1 -36.17496,0 18.08748,27.131196 0 1 1 36.17496,0 z"
       id="path115"
       style="fill:url(#linearGradient1405);stroke:none"
       inkscape:export-filename="/home/jeremy/Projects/gloc/graphics/gloc_tux_128.png"
       inkscape:export-xdpi="15.170144"
       inkscape:export-ydpi="15.170144" />
    <path
       transform="matrix(-1.81082,0.0495107,0.0317324,1.55333,1207.46,-284.777)"
       d="m 328.86324,320.64151 a 18.08748,27.131196 0 1 1 -36.17496,0 18.08748,27.131196 0 1 1 36.17496,0 z"
       id="path116"
       style="fill:url(#linearGradient1407);stroke:none"
       inkscape:export-filename="/home/jeremy/Projects/gloc/graphics/gloc_tux_128.png"
       inkscape:export-xdpi="15.170144"
       inkscape:export-ydpi="15.170144" />
    <path
       transform="matrix(-0.823196,-0.00176123,-0.0182321,0.852662,913.674,-37.9902)"
       d="m 328.86324,320.64151 a 18.08748,27.131196 0 1 1 -36.17496,0 18.08748,27.131196 0 1 1 36.17496,0 z"
       id="path117"
       style="fill:#000000;stroke:none"
       inkscape:export-filename="/home/jeremy/Projects/gloc/graphics/gloc_tux_128.png"
       inkscape:export-xdpi="15.170144"
       inkscape:export-ydpi="15.170144" />
    <path
       transform="matrix(0.59438,-0.0722959,0.0688176,0.705838,367.448,32.4186)"
       d="m 328.86324,320.64151 a 18.08748,27.131196 0 1 1 -36.17496,0 18.08748,27.131196 0 1 1 36.17496,0 z"
       id="path118"
       style="fill:#000000;stroke:none"
       inkscape:export-filename="/home/jeremy/Projects/gloc/graphics/gloc_tux_128.png"
       inkscape:export-xdpi="15.170144"
       inkscape:export-ydpi="15.170144" />
    <path
       transform="matrix(-0.480323,-0.036454,-0.0467935,0.475606,813.496,87.0124)"
       d="m 328.86324,320.64151 a 18.08748,27.131196 0 1 1 -36.17496,0 18.08748,27.131196 0 1 1 36.17496,0 z"
       id="path121"
       style="fill:url(#linearGradient1409);stroke:none"
       inkscape:export-filename="/home/jeremy/Projects/gloc/graphics/gloc_tux_128.png"
       inkscape:export-xdpi="15.170144"
       inkscape:export-ydpi="15.170144" />
    <path
       transform="matrix(0.35691,-0.0408211,0.0413232,0.398544,449.334,114.991)"
       d="m 328.86324,320.64151 a 18.08748,27.131196 0 1 1 -36.17496,0 18.08748,27.131196 0 1 1 36.17496,0 z"
       id="path122"
       style="fill:url(#linearGradient1411);stroke:none"
       inkscape:export-filename="/home/jeremy/Projects/gloc/graphics/gloc_tux_128.png"
       inkscape:export-xdpi="15.170144"
       inkscape:export-ydpi="15.170144" />
    <path
       transform="matrix(1.25,0,0,1.25,185.454,-168.23)"
       id="path128"
       d="m 258.702,495.425 c 12.836,-29.103 40.114,-80.226 40.695,-119.758 0,-31.442 94.179,-38.951 101.737,-7.558 7.558,31.393 26.741,78.483 38.95,101.156 12.208,22.672 47.809,94.695 9.884,157.546 -34.157,55.644 -137.725,99.666 -193.01,-7.557 -18.603,-37.207 -15.285,-83.315 1.744,-123.829 z"
       style="fill:url(#linearGradient1413);stroke:none"
       inkscape:export-filename="/home/jeremy/Projects/gloc/graphics/gloc_tux_128.png"
       inkscape:export-xdpi="15.170144"
       inkscape:export-ydpi="15.170144" />
    <path
       transform="matrix(1.38936,-0.111074,0.102211,1.30214,108.413,-165.938)"
       id="path112"
       d="m 242.905,473.815 c -11.263,18.967 -35.5,69.309 12.137,102.047 51.311,34.82 46.473,97.062 -15.607,61.955 -56.777,-31.789 -22.845,-137.778 -4.51,-162.266 12.107,-17.214 29.897,-38.031 7.98,-1.736 z"
       style="fill:url(#linearGradient1415);stroke:none"
       inkscape:export-filename="/home/jeremy/Projects/gloc/graphics/gloc_tux_128.png"
       inkscape:export-xdpi="15.170144"
       inkscape:export-ydpi="15.170144" />
    <path
       transform="matrix(1.25,0,0,1.25,185.454,-167.505)"
       id="path109"
       d="m 256.513,449.72 c -17.465,28.508 -59.377,95.813 -3.288,130.723 75.569,46.355 54.173,92.711 -14.799,50.974 -97.109,-58.264 -11.825,-175.616 27.131,-220.338 44.444,-50.2 8.554,9.087 -9.044,38.641 z"
       style="fill:#000000;stroke:#000000;stroke-width:1.25"
       inkscape:export-filename="/home/jeremy/Projects/gloc/graphics/gloc_tux_128.png"
       inkscape:export-xdpi="15.170144"
       inkscape:export-ydpi="15.170144" />
    <path
       id="path125"
       d="m 421.481,504.727 c 0,32.412 -29.272,74.516 -79.528,74.138 -51.828,0.455 -73.949,-41.726 -73.949,-74.138 0,-32.412 34.379,-58.717 76.739,-58.717 42.359,0 76.738,26.305 76.738,58.717 z"
       style="font-size:12px;fill:url(#linearGradient1417);stroke:none"
       transform="matrix(1.30209,0,0,1.22525,170.042,-153.557)"
       inkscape:export-filename="/home/jeremy/Projects/gloc/graphics/gloc_tux_128.png"
       inkscape:export-xdpi="15.170144"
       inkscape:export-ydpi="15.170144" />
    <path
       id="path127"
       d="m 398.227,412.292 c -0.612,38.572 -23.18,47.671 -51.74,47.671 -28.561,0 -49.292,-5.694 -51.741,-47.671 0,-26.314 23.18,-41.542 51.741,-41.542 28.56,0 51.74,15.228 51.74,41.542 z"
       style="font-size:12px;fill:url(#linearGradient1419);stroke:none"
       transform="matrix(1.1868,0,0,1.06708,210.623,-100.078)"
       inkscape:export-filename="/home/jeremy/Projects/gloc/graphics/gloc_tux_128.png"
       inkscape:export-xdpi="15.170144"
       inkscape:export-ydpi="15.170144" />
    <path
       transform="matrix(1.25,0,0,1.25,185.454,-167.505)"
       id="path129"
       d="m 234.285,456.475 c 17.716,-26.996 55.015,-68.364 6.977,5.813 -38.951,61.043 -14.403,100.273 -1.744,111.039 36.527,32.562 34.966,54.349 6.395,37.206 -61.625,-36.626 -48.835,-98.248 -11.628,-154.058 z"
       style="fill:url(#linearGradient1421);stroke:none"
       inkscape:export-filename="/home/jeremy/Projects/gloc/graphics/gloc_tux_128.png"
       inkscape:export-xdpi="15.170144"
       inkscape:export-ydpi="15.170144" />
    <path
       transform="matrix(1.25,0,0,1.25,185.454,-167.505)"
       id="path131"
       d="m 490.662,467.52 c -15.319,-31.701 -64.134,-111.902 2.326,-18.603 60.461,84.297 18.022,143.013 10.464,148.827 -7.557,5.813 -33.137,17.44 -25.579,-2.907 7.557,-20.347 45.234,-58.973 12.789,-127.317 z"
       style="fill:url(#linearGradient1423);stroke:none"
       inkscape:export-filename="/home/jeremy/Projects/gloc/graphics/gloc_tux_128.png"
       inkscape:export-xdpi="15.170144"
       inkscape:export-ydpi="15.170144" />
    <path
       transform="matrix(1.25,0,0,1.25,185.454,-167.505)"
       id="path132"
       d="m 220.915,716.921 c -40.442,-21.416 -99.252,4.124 -77.902,-54.066 4.276,-13.238 -6.375,-33.008 0.581,-45.926 8.139,-15.698 25.58,-12.209 36.045,-22.674 10.318,-10.891 16.859,-29.649 36.044,-26.742 19.184,2.907 31.945,26.461 45.344,55.229 9.883,20.638 44.941,49.664 42.65,72.758 -2.696,35.5 -43.027,42.19 -82.762,21.421 z"
       style="fill:url(#linearGradient1425);stroke:#e68c3f;stroke-width:6.25"
       inkscape:export-filename="/home/jeremy/Projects/gloc/graphics/gloc_tux_128.png"
       inkscape:export-xdpi="15.170144"
       inkscape:export-ydpi="15.170144" />
    <path
       id="path177"
       d="m 415.072,495.764 c -3.007,24.906 -35.813,76.627 -69.518,81.534 -34.26,5.336 -66.432,-34.06 -74.147,-71.114 -9.889,-41.206 22.587,-57.6 71.938,-56.627 53.301,1.654 74.121,13.891 71.727,46.207 z"
       style="font-size:12px;fill:url(#linearGradient1427);stroke:none"
       transform="matrix(0.598206,0.268584,-0.239623,0.617213,700.568,140.464)"
       inkscape:export-filename="/home/jeremy/Projects/gloc/graphics/gloc_tux_128.png"
       inkscape:export-xdpi="15.170144"
       inkscape:export-ydpi="15.170144" />
    <path
       transform="matrix(-1.1685,0.423145,0.475283,1.16478,728.343,-213.821)"
       id="path133"
       d="m 220.274,718.402 c -41.327,-23.59 -99.894,5.605 -77.261,-55.547 4.736,-13.068 -6.596,-33.552 0.36,-46.47 8.139,-15.698 25.801,-11.665 36.266,-22.13 10.318,-10.891 18.827,-27.868 38.012,-24.961 19.184,2.907 29.977,24.68 43.376,53.448 9.883,20.638 43.415,48.971 41.124,72.065 -2.696,35.5 -42.724,45.471 -81.877,23.595 z"
       style="fill:url(#linearGradient1429);stroke:#e68c3f;stroke-width:6.25067997"
       inkscape:export-filename="/home/jeremy/Projects/gloc/graphics/gloc_tux_128.png"
       inkscape:export-xdpi="15.170144"
       inkscape:export-ydpi="15.170144" />
    <path
       transform="matrix(-0.945096,0.343745,0.424076,0.956058,714.328,-64.342)"
       id="path134"
       d="m 216.482,675.68 c -86.531,-57.503 -47.308,-70.96 -36.843,-81.425 10.318,-10.891 18.827,-27.868 38.012,-24.961 19.184,2.907 29.977,24.68 43.376,53.448 9.883,20.638 43.06,48.918 41.124,72.065 -2.616,27.11 -48.19,5.487 -85.669,-19.127 z"
       style="fill:url(#linearGradient1431);stroke:none"
       inkscape:export-filename="/home/jeremy/Projects/gloc/graphics/gloc_tux_128.png"
       inkscape:export-xdpi="15.170144"
       inkscape:export-ydpi="15.170144" />
    <path
       transform="matrix(1.00431,-0.052286,-0.0174,1.04575,244.191,-28.4653)"
       id="path135"
       d="m 216.506,677.071 c -86.531,-57.503 -46.797,-73.57 -33.946,-81.28 15.399,-9.942 15.158,-30.831 34.343,-27.924 19.184,2.907 30.725,26.107 44.124,54.875 9.883,20.638 43.06,48.918 41.124,72.065 -2.616,27.11 -48.166,6.878 -85.645,-17.736 z"
       style="fill:url(#linearGradient1433);stroke:none"
       inkscape:export-filename="/home/jeremy/Projects/gloc/graphics/gloc_tux_128.png"
       inkscape:export-xdpi="15.170144"
       inkscape:export-ydpi="15.170144" />
    <path
       id="path136"
       d="m 415.072,495.764 c -3.007,24.906 -35.813,76.627 -69.518,81.534 -34.26,5.336 -66.432,-34.06 -74.147,-71.114 -9.889,-41.206 22.587,-57.6 71.938,-56.627 53.301,1.654 74.121,13.891 71.727,46.207 z"
       style="font-size:12px;fill:#000000;stroke:none"
       transform="matrix(0.515584,0.215259,-0.206526,0.49467,713.3,222.559)"
       inkscape:export-filename="/home/jeremy/Projects/gloc/graphics/gloc_tux_128.png"
       inkscape:export-xdpi="15.170144"
       inkscape:export-ydpi="15.170144" />
    <path
       id="path137"
       d="m 415.072,495.764 c -3.007,24.906 -35.813,76.627 -69.518,81.534 -34.26,5.336 -66.432,-34.06 -74.147,-71.114 -9.889,-41.206 22.587,-57.6 71.938,-56.627 53.301,1.654 74.121,13.891 71.727,46.207 z"
       style="font-size:12px;fill:url(#linearGradient1435);stroke:none"
       transform="matrix(0.351231,0.149463,-0.128856,0.343469,724.522,318.291)"
       inkscape:export-filename="/home/jeremy/Projects/gloc/graphics/gloc_tux_128.png"
       inkscape:export-xdpi="15.170144"
       inkscape:export-ydpi="15.170144" />
    <path
       transform="matrix(1.25,0,0,1.25,185.454,-167.505)"
       id="path119"
       d="m 309.954,338.729 c 7.147,-6.77 24.811,-27.066 57.961,-5.755 6.162,4.01 11.162,4.377 23.021,9.455 23.726,9.749 12.382,33.259 -12.744,41.108 -10.758,3.489 -20.536,16.556 -40.129,15.439 -16.734,-0.977 -21.119,-11.874 -31.398,-17.906 -18.269,-10.311 -20.965,-24.254 -11.1,-31.653 9.866,-7.399 13.725,-10.059 14.389,-10.688 z"
       style="fill:url(#linearGradient1437);stroke:#e68c3f;stroke-width:3.75"
       inkscape:export-filename="/home/jeremy/Projects/gloc/graphics/gloc_tux_128.png"
       inkscape:export-xdpi="15.170144"
       inkscape:export-ydpi="15.170144" />
    <path
       transform="matrix(1.25,0,0,1.25,185.454,-167.505)"
       id="path120"
       d="m 391.251,357.645 c -9.883,0.581 -31.393,22.091 -54.066,22.091 -22.673,0 -36.044,-20.929 -39.532,-20.929"
       style="fill:none;stroke:#e68c3f;stroke-width:2.5"
       inkscape:export-filename="/home/jeremy/Projects/gloc/graphics/gloc_tux_128.png"
       inkscape:export-xdpi="15.170144"
       inkscape:export-ydpi="15.170144" />
    <path
       transform="matrix(0.627885,0,0,0.595666,392.366,51.8173)"
       id="path123"
       d="m 309.954,338.729 c 7.147,-6.77 29.691,-25.348 59.588,-6.328 6.299,3.766 12.804,7.865 22.478,13.464 19.162,11.748 9.671,28.678 -13.286,39.39 -10.418,4.495 -27.593,14.415 -40.671,13.721 -14.533,-1.408 -23.935,-11.399 -33.567,-17.906 -17.67,-12.303 -16.597,-22.237 -8.389,-30.508 6.205,-5.679 13.183,-11.204 13.847,-11.833 z"
       style="fill:url(#linearGradient1439);stroke:none"
       inkscape:export-filename="/home/jeremy/Projects/gloc/graphics/gloc_tux_128.png"
       inkscape:export-xdpi="15.170144"
       inkscape:export-ydpi="15.170144" />
  </g>
  <path
     style="font-size:medium;font-style:normal;font-variant:normal;font-weight:normal;font-stretch:normal;text-indent:0;text-align:start;text-decoration:none;line-height:normal;letter-spacing:normal;word-spacing:normal;text-transform:none;direction:ltr;block-progression:tb;writing-mode:lr-tb;text-anchor:start;color:#000000;fill:#1c7911;fill-opacity:1;stroke:none;stroke-width:100;marker:none;visibility:visible;display:inline;overflow:visible;enable-background:accumulate;font-family:aakar;-inkscape-font-specification:aakar"
     d="m -273.74375,-41.497663 c -50.32642,-49.515437 -78.7118,26.764169 -58.45851,46.691091 20.25329,19.926922 22.63791,63.883192 -8.04789,125.890822 -30.6858,62.00763 -91.74412,135.77315 -174.86138,202.1593 -83.11725,66.38615 -172.22235,112.55686 -244.98033,133.17028 -72.75799,20.61342 -121.82758,13.94466 -142.08088,-5.98226 -20.25329,-19.92692 -108.78496,-2.82434 -58.45851,46.69109 50.32643,49.51543 135.48452,49.5423 222.70283,24.83207 87.21831,-24.71024 183.83813,-75.88248 274.25675,-148.10026 90.41862,-72.21778 157.86911,-152.0893 194.65357,-226.42066 36.78446,-74.33136 45.60077,-149.416039 -4.72565,-198.931473 z"
     id="path2903-5-2"
     sodipodi:nodetypes="ccsssccsssc"
     inkscape:export-filename="/home/jeremy/Projects/gloc/graphics/gloc_tux_128.png"
     inkscape:export-xdpi="15.170144"
     inkscape:export-ydpi="15.170144" />
  <path
     transform="matrix(-0.5845851,0.46691091,0.5143986,0.50610923,-1093.1718,256.22796)"
     style="color:#000000;fill:none;stroke:#a8c8a4;stroke-width:27.31684205999999904;stroke-miterlimit:4;stroke-opacity:1;marker:none;visibility:visible;display:inline;overflow:visible;enable-background:accumulate;stroke-dasharray:none;filter:url(#filter3822)"
     d="m 65.625,389.0625 c 0,137.20824 -240.64695,248.4375 -537.5,248.4375 -296.85305,0 -537.5,-111.22926 -537.5,-248.4375"
     id="path2903-5-0"
     sodipodi:nodetypes="csc"
     inkscape:export-filename="/home/jeremy/Projects/gloc/graphics/gloc_tux_128.png"
     inkscape:export-xdpi="15.170144"
     inkscape:export-ydpi="15.170144" />
  <path
     style="font-size:medium;font-style:normal;font-variant:normal;font-weight:normal;font-stretch:normal;text-indent:0;text-align:start;text-decoration:none;line-height:normal;letter-spacing:normal;word-spacing:normal;text-transform:none;direction:ltr;block-progression:tb;writing-mode:lr-tb;text-anchor:start;color:#000000;fill:#113979;fill-opacity:1;stroke:none;stroke-width:100;marker:none;visibility:visible;display:inline;overflow:visible;enable-background:accumulate;font-family:aakar;-inkscape-font-specification:aakar"
     d="m -960.63125,-41.497663 c -50.32645,49.5154344 -41.51015,124.600112 -4.72565,198.931473 36.78446,74.33136 104.23495,154.20288 194.65357,226.42066 90.41862,72.21778 187.03844,123.39002 274.25675,148.10026 87.21831,24.71023 172.3764,24.68336 222.70283,-24.83207 l -58.45851,-46.69109 c -20.2533,19.92692 -69.32289,26.59568 -142.08088,5.98226 -72.75798,-20.61342 -161.86308,-66.78414 -244.98033,-133.17028 -83.11725,-66.38615 -144.17558,-140.15167 -174.86138,-202.1593 -30.6858,-62.007626 -28.30118,-105.9639 -8.04789,-125.890822 l -58.45851,-46.691091 z"
     id="path2903-0"
     inkscape:export-filename="/home/jeremy/Projects/gloc/graphics/gloc_tux_128.png"
     inkscape:export-xdpi="15.170144"
     inkscape:export-ydpi="15.170144" />
  <path
     transform="matrix(0.5845851,0.46691091,-0.5143986,0.50610923,-141.2032,256.22796)"
     style="color:#000000;fill:none;stroke:#8ca2c5;stroke-width:27.31684205999999904;stroke-miterlimit:4;stroke-opacity:1;marker:none;visibility:visible;display:inline;overflow:visible;enable-background:accumulate;stroke-dasharray:none;filter:url(#filter3930)"
     d="m 65.625,389.0625 c 0,137.20824 -240.64695,248.4375 -537.5,248.4375 -296.85305,0 -537.5,-111.22926 -537.5,-248.4375"
     id="path2903-7"
     sodipodi:nodetypes="csc"
     inkscape:export-filename="/home/jeremy/Projects/gloc/graphics/gloc_tux_128.png"
     inkscape:export-xdpi="15.170144"
     inkscape:export-ydpi="15.170144" />
</svg>
